<?xml version="1.0" encoding="utf-8"?>
<svg xmlns="http://www.w3.org/2000/svg" viewBox="0 0 48 48" width="46" height="46">
  <path d="M5.4355469 10.957031C3.1940971 10.957031 1.4873184 13.161086 2.1054688 15.328125C3.7149365 20.976871 6.1008234 26.508318 9.6621094 30.857422C13.223395 35.206526 18.039918 38.358951 24.199219 38.984375C26.249401 39.19239 28.017578 37.521139 28.017578 35.494141L28.017578 31.447266C28.017578 31.194748 28.190043 31.015308 28.386719 31.009766C28.423139 31.008896 28.452253 31.007813 28.470703 31.007812C29.178043 31.007812 30.631501 31.893981 31.908203 33.271484C33.184905 34.648988 34.314098 36.354273 34.857422 37.298828L34.857422 37.300781C35.472179 38.36767 36.617685 39.011719 37.835938 39.011719L42.708984 39.011719C45.135955 39.013519 46.759978 36.271923 45.572266 34.148438C43.707529 30.813171 39.987356 27.514403 38.126953 25.869141C41.535533 22.126008 43.795468 18.046772 44.796875 15.341797C45.552594 13.298086 43.994375 10.998047 41.796875 10.998047L38.318359 10.998047C36.806296 10.998047 35.396532 11.734785 34.820312 12.914062C32.113082 18.46169 29.699958 20.499254 28 21.966797L28 14.439453C28 12.561528 26.441788 11.013274 24.570312 11.009766L18.478516 11C16.538627 10.9976 15.335757 13.393494 16.498047 14.947266L17.673828 16.521484L17.675781 16.525391C17.877299 16.791881 17.984375 17.111197 17.984375 17.439453L17.984375 17.441406L18.007812 23.71875C15.584865 21.163426 12.952504 15.750557 12.158203 13.335938L12.158203 13.333984C11.694311 11.923494 10.359752 10.971123 8.8867188 10.966797L8.8847656 10.966797L5.4375 10.957031L5.4355469 10.957031 z M 5.4355469 13.957031L8.8789062 13.966797C9.0905592 13.967299 9.246215 14.081502 9.3085938 14.271484C10.294883 17.27072 12.886252 22.985249 16.171875 26.185547C17.025083 27.016776 18.277358 27.185277 19.248047 26.791016C20.218736 26.396755 21.009766 25.37501 21.009766 24.175781L21.009766 24.173828L20.984375 17.439453C20.984375 16.45867 20.663301 15.504844 20.074219 14.722656L20.072266 14.71875L19.535156 14.001953L24.564453 14.009766C24.827025 14.010278 25 14.181378 25 14.439453L25 22.042969C25 24.477717 28.066371 25.876634 29.910156 24.285156L29.912109 24.285156C31.602179 22.825279 34.592869 20.21974 37.515625 14.230469C37.583405 14.091748 37.524425 13.998047 38.318359 13.998047L41.796875 13.998047C41.999375 13.998047 42.058703 14.094497 41.982422 14.300781C41.131592 16.59902 38.960826 20.606819 35.742188 24.074219C34.750126 25.143099 34.79055 26.909155 35.912109 27.902344C37.670254 29.457435 41.507421 33.025544 42.953125 35.611328C43.085413 35.847842 42.985964 36.011922 42.710938 36.011719L37.835938 36.011719C37.668189 36.011719 37.530274 35.929849 37.457031 35.802734C36.807355 34.673289 35.615923 32.857918 34.109375 31.232422C32.602827 29.606926 30.809363 28.007812 28.470703 28.007812C28.404443 28.007812 28.350188 28.008705 28.308594 28.009766L28.304688 28.009766L28.302734 28.009766C26.44141 28.062226 25.017578 29.641784 25.017578 31.447266L25.017578 35.494141C25.017578 35.805142 24.777771 36.027985 24.501953 36C19.178253 35.459424 15.165636 32.844427 11.982422 28.957031C8.7992078 25.069635 6.5257666 19.895114 4.9902344 14.505859C4.9043844 14.204898 5.0889964 13.957031 5.4355469 13.957031 z" fill="#FFFFFF" />
</svg>