<?xml version="1.0" encoding="utf-8"?>
<svg xmlns="http://www.w3.org/2000/svg" viewBox="0 0 48 48" width="46" height="46">
  <path d="M16.5 5 A 1.50015 1.50015 0 0 0 15 6.5L15 14L11.5 14C7.3754991 14 4 17.375499 4 21.5L4 35.5C4 39.624501 7.3754991 43 11.5 43L36.5 43C40.624501 43 44 39.624501 44 35.5L44 21.5C44 17.375499 40.624501 14 36.5 14L33 14L33 6.5 A 1.50015 1.50015 0 0 0 31.5 5L16.5 5 z M 18 8L30 8L30 14L18 14L18 8 z M 11.5 17L16.5 17L31.5 17L36.5 17C39.003499 17 41 18.996501 41 21.5L41 35.5C41 38.003499 39.003499 40 36.5 40L11.5 40C8.9965009 40 7 38.003499 7 35.5L7 21.5C7 18.996501 8.9965009 17 11.5 17 z M 24 20 A 4 4 0 0 0 24 28 A 4 4 0 0 0 24 20 z M 18.447266 30C17.647266 30 17 30.647266 17 31.447266L17 32.751953C17 34.974953 19.837 37 24 37C28.163 37 31 34.974953 31 32.751953L31 31.447266C31 30.647266 30.352734 30 29.552734 30L18.447266 30 z" fill="#E7E7E7" />
</svg>