<?xml version="1.0" encoding="utf-8"?>
<svg xmlns="http://www.w3.org/2000/svg" viewBox="0 0 48 48" width="46" height="46">
  <path d="M16.671875 7.2148438C16.486405 7.2190874 16.299581 7.2386152 16.113281 7.2734375C13.574331 7.7479578 10.975933 8.649134 8.3554688 9.7148438 A 1.50015 1.50015 0 0 0 7.7226562 10.201172C2.0175326 17.763657 0.3684573 25.710581 1.2402344 33.605469 A 1.50015 1.50015 0 0 0 1.9570312 34.726562C5.0443136 36.584848 8.2440569 38.215846 11.642578 39.337891C13.115662 39.823695 14.751851 39.27377 15.628906 37.992188L17.027344 35.945312C17.581741 36.085368 18.144758 36.213605 18.714844 36.328125C20.410438 36.733685 22.175039 36.957031 23.988281 36.957031C25.981196 36.957031 27.915944 36.694149 29.763672 36.207031C30.150613 36.12236 30.537903 36.039741 30.917969 35.943359L32.390625 38.035156C33.27394 39.291311 34.892743 39.826103 36.349609 39.345703C39.756167 38.223569 42.960978 36.588499 46.054688 34.726562 A 1.50015 1.50015 0 0 0 46.773438 33.605469C47.6452 25.71071 45.995291 17.763742 40.289062 10.201172 A 1.50015 1.50015 0 0 0 39.658203 9.7148438C37.037148 8.6478745 34.438942 7.7478833 31.900391 7.2734375C30.408472 6.9945742 28.892989 7.7176076 28.173828 9.0546875L28.15625 9.0878906C26.973043 8.9716886 25.763955 8.862565 24.005859 8.9023438C22.246769 8.8617578 21.039043 8.9711398 19.855469 9.0878906L19.837891 9.0546875C19.208719 7.8862268 17.970165 7.1851384 16.671875 7.2148438 z M 16.826172 10.216797C16.982233 10.235833 17.117055 10.3276 17.197266 10.476562L17.660156 11.335938 A 1.50015 1.50015 0 0 0 19.175781 12.111328C20.401057 11.950157 21.866217 11.849961 23.970703 11.900391 A 1.50015 1.50015 0 0 0 24.041016 11.900391C26.144782 11.850921 27.611838 11.951001 28.837891 12.111328 A 1.50015 1.50015 0 0 0 30.353516 11.335938L30.814453 10.476562C30.919293 10.281643 31.127575 10.18152 31.347656 10.222656C33.443438 10.61435 35.747401 11.417301 38.115234 12.363281C42.996223 18.995645 44.42905 25.642641 43.8125 32.535156C41.062959 34.147542 38.284264 35.549515 35.410156 36.496094C35.193022 36.567694 34.974435 36.496392 34.84375 36.310547L33.742188 34.746094C34.104612 34.573012 34.464659 34.394563 34.816406 34.203125 A 1.50015 1.50015 0 1 0 33.382812 31.568359C31.734964 32.4652 29.951905 33.12537 28.074219 33.523438C26.764025 33.745094 25.40575 33.885414 23.978516 33.914062C22.625605 33.886829 21.326145 33.761688 20.072266 33.560547C18.131495 33.167227 16.290693 32.492226 14.59375 31.568359 A 1.50015 1.50015 0 0 0 13.876953 31.375 A 1.50015 1.50015 0 0 0 13.160156 34.203125C13.506722 34.391805 13.86178 34.567432 14.21875 34.738281L13.152344 36.298828C13.023796 36.486666 12.802248 36.561303 12.583984 36.490234C9.7179766 35.544001 6.9431409 34.144986 4.2011719 32.537109C3.5842436 25.643997 5.0177769 18.996357 9.8984375 12.363281C12.266754 11.417839 14.568689 10.614274 16.664062 10.222656C16.719464 10.212301 16.774152 10.210452 16.826172 10.216797 z M 30.488281 18.966797C28.580281 18.966797 27.009766 21.007281 27.009766 23.488281C27.009766 25.969281 28.580281 28.009766 30.488281 28.009766C32.396281 28.009766 33.966797 25.969281 33.966797 23.488281C33.966797 21.007281 32.396281 18.966797 30.488281 18.966797 z M 16.488281 18.992188C14.562281 18.992188 12.976563 21.022281 12.976562 23.488281C12.976562 25.954281 14.562281 27.982422 16.488281 27.982422C18.414281 27.982422 19.998047 25.954281 19.998047 23.488281C19.998047 21.022281 18.414281 18.992187 16.488281 18.992188 z" fill="#E7E7E7" />
</svg>